<?xml version="1.0" encoding="iso-8859-1"?>
<!-- Generator: Adobe Illustrator 19.0.0, SVG Export Plug-In . SVG Version: 6.00 Build 0)  -->
<svg version="1.1" id="Capa_1" xmlns="http://www.w3.org/2000/svg" xmlns:xlink="http://www.w3.org/1999/xlink" x="0px" y="0px"
	 viewBox="0 0 488.006 488.006" style="enable-background:new 0 0 488.006 488.006;" xml:space="preserve">
<g>
	<g>
		<path d="M441.425,414.838l-18.032-72.272c-0.892-3.559-4.091-6.056-7.76-6.056h-34.24l-34.448-17.216
			c-1.109-0.558-2.334-0.849-3.576-0.848h-48.92l-23.568-54.976l7.376-14.744c1.353-2.711,1.059-5.953-0.76-8.376l-10.736-14.328
			l15.888,5.536c3.363,1.174,7.097-0.016,9.16-2.92l17.024-24c0.547-0.765,0.954-1.621,1.2-2.528l24-88
			c1.163-4.262-1.349-8.661-5.611-9.824c-0.01-0.003-0.019-0.005-0.029-0.008L222.201,75.694l-7.888-13.816V16.006
			c0.001-3.032-1.712-5.805-4.424-7.16l-16-8c-1.599-0.805-3.423-1.044-5.176-0.68l-40,8c-3.725,0.76-6.401,4.038-6.4,7.84v56
			c0,4.418,3.582,8,8,8h26.232l4.44,13.312l-23.352,19.2c-1.041,0.852-1.849,1.953-2.352,3.2l-14.832,37.088l-23.944-12v-4.088
			c0-2.674-1.335-5.172-3.56-6.656l-27.096-18.056c-3.678-2.448-8.644-1.451-11.092,2.227c-0.506,0.76-0.878,1.6-1.1,2.485
			l-9.04,36.136c-0.822,3.28,0.507,6.723,3.32,8.6l81.296,54.192c3.676,2.452,8.643,1.46,11.095-2.216
			c0.183-0.275,0.349-0.561,0.497-0.856l17.432-34.856l3.688,14.752l8.504,59.456l-61.152,78.64
			c-1.005,1.289-1.592,2.855-1.68,4.488l-1.216,23.152l-31.792,76.536l-38.696-7.744c-4.332-0.868-8.548,1.941-9.415,6.273
			c-0.275,1.375-0.185,2.798,0.263,4.127l9.032,27.096c0.79,2.391,2.665,4.266,5.056,5.056l54.2,18.072
			c0.797,0.254,1.628,0.383,2.464,0.384c2.674,0,5.172-1.335,6.656-3.56l18.064-27.104c0.188-0.273,0.356-0.559,0.504-0.856
			l36.128-72.264c0.558-1.109,0.849-2.334,0.848-3.576v-23.792l45.168-45.176l39.68,55.544c1.251,1.756,3.157,2.933,5.288,3.264
			l115.32,17.736l43.496,34.8c3.45,2.76,8.484,2.202,11.245-1.248C441.47,419.825,442.03,417.26,441.425,414.838z M255.721,211.302
			l-3.712-4.952v-68.912l24.928,4.888l-8.336,42.968L255.721,211.302z M393.513,374.406c-1.09-0.878-2.393-1.452-3.776-1.664
			l-114.088-17.536l-43.2-60.488c-1.369-1.914-3.511-3.128-5.856-3.32c-2.339-0.178-4.641,0.665-6.312,2.312l-54.192,54.2
			c-1.5,1.5-2.344,3.534-2.344,5.656v25.216l-35.032,70.104l-14.4,21.6l-44.64-14.872l-3.416-10.224l31.648,6.328
			c3.75,0.747,7.504-1.264,8.96-4.8l34.84-83.864c0.343-0.836,0.548-1.722,0.608-2.624l1.168-22.024l61.68-79.312
			c1.332-1.715,1.91-3.898,1.6-6.048l-9.04-63.2c-0.041-0.27-0.097-0.537-0.168-0.8l-9.032-36.128
			c-1.074-4.286-5.419-6.889-9.705-5.815c-2.261,0.567-4.163,2.091-5.207,4.175l-23.048,46.096l-69.048-46.08l4.92-19.656
			l14.08,9.392v4.76c0.002,3.029,1.714,5.798,4.424,7.152l36.136,18.064c3.951,1.979,8.757,0.38,10.736-3.57
			c0.099-0.198,0.19-0.4,0.272-0.606l17.304-43.264l26.016-21.384c2.555-2.104,3.55-5.564,2.504-8.704l-8-24
			c-1.089-3.268-4.147-5.473-7.592-5.472h-24v-41.44l30.872-6.176l9.128,4.56v43.056c-0.007,1.403,0.357,2.783,1.056,4
			l10.592,18.552c1.056,1.851,2.807,3.205,4.864,3.76l101.656,27.288l-21.512,78.888l-12.736,17.984l-8.72-3.048l9.92-20
			c0.314-0.642,0.543-1.322,0.68-2.024l10.056-51.872c0.837-4.328-1.986-8.518-6.312-9.368l-42.344-8.296
			c-4.336-0.848-8.539,1.979-9.387,6.315c-0.099,0.505-0.149,1.018-0.149,1.533v81.296c0,1.731,0.561,3.415,1.6,4.8l24.128,32.176
			l-6.824,13.6c-1.05,2.105-1.12,4.566-0.192,6.728l27.096,63.2c1.261,2.941,4.152,4.848,7.352,4.848h52.376l34.4,17.304
			c1.111,0.554,2.335,0.841,3.576,0.84h29.888l10.8,43.2L393.513,374.406z"/>
	</g>
</g>
<g>
</g>
<g>
</g>
<g>
</g>
<g>
</g>
<g>
</g>
<g>
</g>
<g>
</g>
<g>
</g>
<g>
</g>
<g>
</g>
<g>
</g>
<g>
</g>
<g>
</g>
<g>
</g>
<g>
</g>
</svg>
