<svg id="Capa_1" enable-background="new 0 0 512.008 512.008" height="512" viewBox="0 0 512.008 512.008" width="512" xmlns="http://www.w3.org/2000/svg"><g><path d="m470.041 403.105c0-14.403-11.718-26.122-26.122-26.122-14.403 0-26.122 11.718-26.122 26.122s11.718 26.122 26.122 26.122c14.403 0 26.122-11.718 26.122-26.122zm-37.244 0c0-6.132 4.989-11.122 11.122-11.122s11.122 4.989 11.122 11.122-4.989 11.122-11.122 11.122-11.122-4.989-11.122-11.122z"/><path d="m41.976 391.115c0 16.767 13.641 30.407 30.407 30.407s30.407-13.641 30.407-30.407-13.641-30.407-30.407-30.407-30.407 13.64-30.407 30.407zm45.814 0c0 8.496-6.912 15.407-15.407 15.407-8.496 0-15.407-6.912-15.407-15.407s6.912-15.407 15.407-15.407c8.496 0 15.407 6.911 15.407 15.407z"/><path d="m464.531 353.292-110.636-6.539c-4.129-.254-7.685 2.91-7.929 7.044-.245 4.135 2.909 7.685 7.044 7.929l110.59 6.537c18.733 1.221 33.408 16.883 33.408 35.656 0 19.702-16.029 35.732-35.731 35.732h-398.762c-26.195 0-47.506-21.311-47.506-47.506 0-13.277 5.336-25.589 15.025-34.667 9.689-9.079 22.312-13.6 35.616-12.736l254.731 15.057c4.128.242 7.685-2.909 7.929-7.045.245-4.135-2.909-7.685-7.044-7.929l-223.641-13.22v-157.258l85.122 37.173c3.891 1.7 8.004 2.562 12.227 2.562 12.162 0 23.166-7.201 28.033-18.345 3.269-7.484 3.427-15.794.445-23.398s-8.746-13.591-16.23-16.859l-42.863-18.719c-3.795-1.658-8.217.075-9.874 3.872-1.658 3.796.076 8.217 3.872 9.875l42.863 18.719c3.813 1.665 6.749 4.714 8.268 8.588 1.519 3.873 1.438 8.107-.227 11.919-2.48 5.679-8.088 9.349-14.287 9.349-2.143 0-4.235-.44-6.222-1.308l-117.954-51.51c-2.936-1.282-5.372-3.403-7.046-6.134l-46.444-75.764c-2.174-3.547-2.837-7.729-1.867-11.774s3.459-7.471 7.006-9.646c3.547-2.174 7.73-2.836 11.775-1.867 4.045.971 7.471 3.458 9.645 7.006l42.652 69.579c.802 1.308 1.986 2.339 3.393 2.953l38.472 16.801c3.793 1.657 8.217-.076 9.874-3.871 1.658-3.796-.076-8.217-3.872-9.875l-36.312-15.858-41.418-67.568c-4.268-6.964-10.992-11.848-18.934-13.753-7.943-1.906-16.15-.604-23.113 3.663-6.963 4.269-11.848 10.993-13.753 18.935-1.906 7.943-.604 16.151 3.664 23.114l41.446 67.614c-.005.116-.018.231-.018.348v108.604c0 4.142 3.358 7.5 7.5 7.5s7.5-3.358 7.5-7.5v-90.786c1.227.757 2.506 1.439 3.845 2.024l17.831 7.787v162.922l-16.044-.949c-1.888-.123-3.765-.147-5.631-.105v-48.207c0-4.142-3.358-7.5-7.5-7.5s-7.5 3.358-7.5 7.5v50.384c-9.66 2.638-18.602 7.598-26.171 14.69-12.749 11.944-19.77 28.143-19.77 45.612 0 34.199 27.61 62.056 61.709 62.486v19.244c0 6.89 5.605 12.496 12.496 12.496h47.58c6.89 0 12.496-5.606 12.496-12.496v-19.224h243.438v19.224c0 6.89 5.606 12.496 12.496 12.496h47.58c6.891 0 12.496-5.606 12.496-12.496v-19.224h10.978c27.974 0 50.731-22.758 50.731-50.732 0-26.653-20.834-48.889-47.477-50.626zm-345.242 118.078h-42.572v-16.72h42.572zm316.01 0h-42.572v-16.72h42.572z"/><path d="m127.298 390.749c-.202 4.137 2.989 7.654 7.126 7.857l245.857 11.991c.125.006.248.009.372.009 3.974 0 7.289-3.122 7.485-7.135.202-4.137-2.989-7.655-7.126-7.856l-245.857-11.991c-4.131-.19-7.655 2.988-7.857 7.125z"/></g></svg>