<?xml version="1.0"?>
<svg xmlns="http://www.w3.org/2000/svg" id="outline" viewBox="0 0 512 512" width="512" height="512"><path d="M24,416H40a7.99979,7.99979,0,0,0,7.15527-4.42236l21.38379-42.76728L310.47266,415.853l.00341-.01679A7.95807,7.95807,0,0,0,312,416H488a8.00008,8.00008,0,0,0,8-8V368A104.11791,104.11791,0,0,0,392,264a8.00051,8.00051,0,0,0-6.89551,3.94385l-14.10791,23.9834-101.813-58.17884,2.40625-7.21862a8.00026,8.00026,0,0,0-4.01172-9.68506l-16-8a8.00107,8.00107,0,0,0-6.10839-.43409L224,215.56738,132.04688,184.9165A31.94836,31.94836,0,0,0,144,160V136a31.97852,31.97852,0,0,0-48.2417-27.55573L90.62793,103.314A24.97075,24.97075,0,0,0,48,120.9707v34.18506a45.8058,45.8058,0,0,1-20.4375,38.188A7.99967,7.99967,0,0,0,32,208H47.208a47.80035,47.80035,0,0,0,25.512-7.38245,28.62107,28.62107,0,0,0,7.66016,26.61463l7.50659,52.54272L83.5332,301.54053a33.64156,33.64156,0,0,0,2.9563,21.83606L25.44922,312.13232A7.99973,7.99973,0,0,0,16,320v88A8.00008,8.00008,0,0,0,24,416Zm11.05566-16H32V361.70557l20.23584,3.93469ZM396.50879,280.11426A88.10645,88.10645,0,0,1,480,368v32H325.9873l51.74244-87.96173a72.18179,72.18179,0,0,1,68.82983,57.553l15.67969-3.18262a88.26405,88.26405,0,0,0-75.47339-69.73157ZM168,262.2417V249.75842l31.20752,6.24164ZM152,264.938l-49.19189,6.149-5.05372-35.37781L152,246.55841ZM99.22266,304.67822l3.49121-17.45544,58.27832-7.28479-.00147-.01093c.19312-.024.38623-.04394.57862-.08233l22.92407-4.58484,6.29028,31.45141L121.165,325.27637a17.7208,17.7208,0,0,1-21.94238-20.59815Zm107.052-2.09784-6.0918-30.45843L238.417,264.4751l80.66309,51.3313L314.93677,336.524l-79.35865-39.67926a7.99658,7.99658,0,0,0-5.63964-.57471Zm128.92016,14.23767,17.38038-11.5866,8.18725,4.09393-22.77807,38.72253-8.21412-4.10705Zm-71.605-66.28826.43409-1.30243,77.384,44.21942-13.50952,9.00634-71.68262-45.61663,3.3623-1.68122A8.00049,8.00049,0,0,0,263.58984,250.52979Zm-37.05957-18.94043,20.85547-6.95215,6.83106,3.415L249.458,242.32666,238.877,247.61719,98.2666,219.49463A12.77164,12.77164,0,0,1,96.73242,194.855a23.12755,23.12755,0,0,1,14.53418,0l110.20313,36.73438A7.99622,7.99622,0,0,0,226.53027,231.58936ZM96,160v-.001h.001a8.00188,8.00188,0,0,0,5.65527-2.34277L115.31348,144H128v16a16,16,0,0,1-32,0Zm29.835-32H112a7.99836,7.99836,0,0,0-5.65625,2.34277L96,140.68542V136a15.98641,15.98641,0,0,1,29.835-8ZM52.13965,191.61621A61.79477,61.79477,0,0,0,64,155.15576V120.9707a8.97038,8.97038,0,0,1,15.31348-6.34326l5.13086,5.1308A31.79449,31.79449,0,0,0,80,136v23.20691l-1.41406,7.069A32.10711,32.10711,0,0,1,52.13965,191.61621ZM231.13281,312.51074,329.85327,361.871l-3.36255,5.71637L147.93848,334.69617ZM32,329.6084l285.8562,52.65765-9.88306,16.801L32,345.40576Z"/></svg>
